<svg width="20" height="20" viewBox="0 0 20 20" fill="none" xmlns="http://www.w3.org/2000/svg">
<path fill-rule="evenodd" clip-rule="evenodd" d="M9.99996 4.16666C15.1083 4.16666 17.5256 7.59163 18.3765 9.19281C18.6475 9.70265 18.6475 10.2973 18.3765 10.8072C17.5256 12.4084 15.1083 15.8333 9.99996 15.8333C4.89164 15.8333 2.47436 12.4084 1.62339 10.8072C1.35242 10.2973 1.35242 9.70265 1.62339 9.19281C2.47436 7.59163 4.89164 4.16666 9.99996 4.16666ZM5.69692 7.06474C4.31336 7.98144 3.50548 9.20284 3.09512 9.97497C3.09054 9.9836 3.08865 9.98958 3.08783 9.99286C3.08699 9.9962 3.08683 9.99999 3.08683 9.99999C3.08683 9.99999 3.08699 10.0038 3.08783 10.0071C3.08865 10.0104 3.09054 10.0164 3.09512 10.025C3.50548 10.7971 4.31336 12.0185 5.69692 12.9352C5.1257 12.0995 4.79163 11.0887 4.79163 9.99999C4.79163 8.91124 5.1257 7.90052 5.69692 7.06474ZM14.303 12.9352C15.6866 12.0185 16.4944 10.7971 16.9048 10.025C16.9094 10.0164 16.9113 10.0104 16.9121 10.0071C16.9126 10.005 16.913 10.0019 16.913 10.0019L16.9131 9.99999L16.9128 9.99632L16.9121 9.99286C16.9113 9.98958 16.9094 9.9836 16.9048 9.97497C16.4944 9.20285 15.6866 7.98145 14.303 7.06475C14.8742 7.90053 15.2083 8.91125 15.2083 9.99999C15.2083 11.0887 14.8742 12.0995 14.303 12.9352ZM6.4583 9.99999C6.4583 8.04398 8.04396 6.45832 9.99997 6.45832C11.956 6.45832 13.5416 8.04398 13.5416 9.99999C13.5416 11.956 11.956 13.5417 9.99997 13.5417C8.04396 13.5417 6.4583 11.956 6.4583 9.99999Z" fill="#C83C92"/>
</svg>
