<svg width="16" height="16" viewBox="0 0 16 16" fill="none" xmlns="http://www.w3.org/2000/svg">
<path d="M8.83333 4.66667C8.83333 5.1269 9.20643 5.5 9.66667 5.5C10.1269 5.5 10.5 5.1269 10.5 4.66667V3.83333H14.6667C15.1269 3.83333 15.5 3.46024 15.5 3C15.5 2.53976 15.1269 2.16667 14.6667 2.16667H10.5V1.33333C10.5 0.873096 10.1269 0.5 9.66667 0.5C9.20643 0.5 8.83333 0.873096 8.83333 1.33333V4.66667Z" fill="#667085"/>
<path d="M0.5 8C0.5 7.53976 0.873096 7.16667 1.33333 7.16667H2.58333C2.81345 7.16667 3 7.35321 3 7.58333V8.41667C3 8.64678 2.81345 8.83333 2.58333 8.83333H1.33333C0.873096 8.83333 0.5 8.46024 0.5 8Z" fill="#667085"/>
<path d="M5.5 5.5C5.03976 5.5 4.66667 5.8731 4.66667 6.33333V9.66667C4.66667 10.1269 5.03976 10.5 5.5 10.5C5.96024 10.5 6.33333 10.1269 6.33333 9.66667V8.83333H14.6667C15.1269 8.83333 15.5 8.46024 15.5 8C15.5 7.53976 15.1269 7.16667 14.6667 7.16667H6.33333V6.33333C6.33333 5.8731 5.96024 5.5 5.5 5.5Z" fill="#667085"/>
<path d="M0.5 3C0.5 2.53976 0.873096 2.16667 1.33333 2.16667H6.75C6.98012 2.16667 7.16667 2.35321 7.16667 2.58333V3.41667C7.16667 3.64679 6.98012 3.83333 6.75 3.83333H1.33333C0.873096 3.83333 0.5 3.46024 0.5 3Z" fill="#667085"/>
<path d="M10.5 11.3333C10.5 10.8731 10.8731 10.5 11.3333 10.5C11.7936 10.5 12.1667 10.8731 12.1667 11.3333V12.1667H14.6667C15.1269 12.1667 15.5 12.5398 15.5 13C15.5 13.4602 15.1269 13.8333 14.6667 13.8333H12.1667V14.6667C12.1667 15.1269 11.7936 15.5 11.3333 15.5C10.8731 15.5 10.5 15.1269 10.5 14.6667V11.3333Z" fill="#667085"/>
<path d="M0.5 13C0.5 12.5398 0.873096 12.1667 1.33333 12.1667H8.41667C8.64678 12.1667 8.83333 12.3532 8.83333 12.5833V13.4167C8.83333 13.6468 8.64678 13.8333 8.41667 13.8333H1.33333C0.873096 13.8333 0.5 13.4602 0.5 13Z" fill="#667085"/>
</svg>
