<svg width="20" height="19" viewBox="0 0 20 19" fill="none" xmlns="http://www.w3.org/2000/svg">
<path fill-rule="evenodd" clip-rule="evenodd" d="M12.5 4.5C12.5 6.98528 10.4853 9 8 9C5.51472 9 3.5 6.98528 3.5 4.5C3.5 2.01472 5.51472 0 8 0C10.4853 0 12.5 2.01472 12.5 4.5ZM10.5 4.5C10.5 5.88071 9.38071 7 8 7C6.61929 7 5.5 5.88071 5.5 4.5C5.5 3.11929 6.61929 2 8 2C9.38071 2 10.5 3.11929 10.5 4.5Z" fill="#456696"/>
<path fill-rule="evenodd" clip-rule="evenodd" d="M0 16.9231C0 13.0996 3.09957 10 6.92308 10H9.07692C12.9004 10 16 13.0996 16 16.9231C16 18.0701 15.0701 19 13.9231 19H2.07692C0.92987 19 0 18.0701 0 16.9231ZM2 16.9231C2 14.2041 4.20414 12 6.92308 12H9.07692C11.7959 12 14 14.2041 14 16.9231C14 16.9656 13.9656 17 13.9231 17H2.07692C2.03444 17 2 16.9656 2 16.9231Z" fill="#456696"/>
<path d="M16.9198 18.0973C16.8164 18.4981 17.0774 19 17.4913 19H17.9231C19.0701 19 20 18.0701 20 16.9231C20 13.0996 16.9004 10 13.0769 10C12.9347 10 12.8829 10.1975 13.0036 10.2727C13.9494 10.8614 14.7705 11.6314 15.4182 12.5343C15.4621 12.5955 15.5187 12.6466 15.5835 12.685C17.0301 13.5424 18 15.1195 18 16.9231C18 16.9656 17.9656 17 17.9231 17H17.4494C17.1985 17 17 17.2106 17 17.4615C17 17.6811 16.9721 17.8941 16.9198 18.0973Z" fill="#456696"/>
<path d="M12.919 6.96308C12.974 6.85341 13.0645 6.76601 13.1729 6.70836C13.9624 6.28814 14.5 5.45685 14.5 4.5C14.5 3.54315 13.9624 2.71186 13.1729 2.29164C13.0645 2.23399 12.974 2.14659 12.919 2.03692C12.6396 1.48001 12.2684 0.977121 11.8252 0.548096C11.623 0.352311 11.7185 0 12 0C14.4853 0 16.5 2.01472 16.5 4.5C16.5 6.98528 14.4853 9 12 9C11.7185 9 11.623 8.64769 11.8252 8.4519C12.2684 8.02288 12.6396 7.51999 12.919 6.96308Z" fill="#456696"/>
</svg>
