<svg width="20" height="20" viewBox="0 0 20 20" fill="none" xmlns="http://www.w3.org/2000/svg">
<path d="M6.52415 13.4759C4.73198 11.6802 3.35374 9.51473 2.48581 7.13085C2.00831 5.82752 2.44581 4.39585 3.42748 3.41419L4.03498 2.80752C4.1983 2.64387 4.3923 2.51403 4.60586 2.42544C4.81942 2.33686 5.04836 2.29126 5.27956 2.29126C5.51077 2.29126 5.7397 2.33686 5.95327 2.42544C6.16683 2.51403 6.36082 2.64387 6.52415 2.80752L7.94665 4.23002C8.1103 4.39334 8.24013 4.58734 8.32872 4.8009C8.41731 5.01446 8.4629 5.2434 8.4629 5.4746C8.4629 5.70581 8.41731 5.93474 8.32872 6.14831C8.24013 6.36187 8.1103 6.55586 7.94665 6.71919L7.59665 7.06919C7.45655 7.20925 7.34542 7.37554 7.2696 7.55856C7.19378 7.74158 7.15475 7.93775 7.15475 8.13585C7.15475 8.33396 7.19378 8.53012 7.2696 8.71314C7.34542 8.89616 7.45655 9.06245 7.59665 9.20252L10.7966 12.4034C10.9367 12.5434 11.103 12.6546 11.286 12.7304C11.469 12.8062 11.6652 12.8452 11.8633 12.8452C12.0614 12.8452 12.2576 12.8062 12.4406 12.7304C12.6236 12.6546 12.7899 12.5434 12.93 12.4034L13.2808 12.0534C13.4441 11.8897 13.6381 11.7599 13.8517 11.6713C14.0653 11.5827 14.2942 11.5371 14.5254 11.5371C14.7566 11.5371 14.9855 11.5827 15.1991 11.6713C15.4127 11.7599 15.6067 11.8897 15.77 12.0534L17.1925 13.4759C17.3561 13.6392 17.486 13.8332 17.5746 14.0467C17.6631 14.2603 17.7087 14.4892 17.7087 14.7204C17.7087 14.9516 17.6631 15.1806 17.5746 15.3941C17.486 15.6077 17.3561 15.8017 17.1925 15.965L16.5858 16.5717C15.6041 17.5542 14.1725 17.9917 12.8691 17.5142C10.4853 16.6463 8.31979 15.268 6.52415 13.4759Z" stroke="#C83C92" stroke-width="1.5" stroke-linejoin="round"/>
</svg>
